<svg width="17" height="17" viewBox="0 0 17 17" fill="none" xmlns="http://www.w3.org/2000/svg">
<path d="M13.4582 2.83333H3.5415C2.97792 2.83333 2.43742 3.05721 2.0389 3.45573C1.64039 3.85424 1.4165 4.39474 1.4165 4.95833V12.0417C1.4165 12.6052 1.64039 13.1457 2.0389 13.5443C2.43742 13.9428 2.97792 14.1667 3.5415 14.1667H13.4582C14.0218 14.1667 14.5623 13.9428 14.9608 13.5443C15.3593 13.1457 15.5832 12.6052 15.5832 12.0417V4.95833C15.5832 4.39474 15.3593 3.85424 14.9608 3.45573C14.5623 3.05721 14.0218 2.83333 13.4582 2.83333ZM13.1678 4.24999L9.00275 8.41499C8.93691 8.48139 8.85856 8.53408 8.77225 8.57004C8.68593 8.606 8.59335 8.62452 8.49984 8.62452C8.40633 8.62452 8.31375 8.606 8.22743 8.57004C8.14111 8.53408 8.06277 8.48139 7.99692 8.41499L3.83192 4.24999H13.1678ZM14.1665 12.0417C14.1665 12.2295 14.0919 12.4097 13.959 12.5425C13.8262 12.6754 13.646 12.75 13.4582 12.75H3.5415C3.35364 12.75 3.17348 12.6754 3.04064 12.5425C2.9078 12.4097 2.83317 12.2295 2.83317 12.0417V5.24874L6.99817 9.41374C7.39661 9.81169 7.93671 10.0352 8.49984 10.0352C9.06296 10.0352 9.60307 9.81169 10.0015 9.41374L14.1665 5.24874V12.0417Z" fill="white"/>
</svg>
