<svg width="159" height="60" viewBox="0 0 159 60" fill="none" xmlns="http://www.w3.org/2000/svg">
<g clip-path="url(#clip0_62_13)">
<path fill-rule="evenodd" clip-rule="evenodd" d="M0.1 10.1L15.1 18.1L23.6 22.6V28.2V34.9L7.3 25.4V48.3L0 43.3L0.1 10.1Z" fill="#0099FF"/>
<path fill-rule="evenodd" clip-rule="evenodd" d="M58.3999 10.2H70.5999C72.9999 10.8 73.1999 13.1 73.3999 14.2C73.3999 14.2 63.2999 14.2 58.3999 14.2C58.3999 12.9 58.3999 10.2 58.3999 10.2Z" fill="white"/>
<path fill-rule="evenodd" clip-rule="evenodd" d="M75.6001 10.1H80.3001L80.4001 24.7H75.6001V10.1Z" fill="white"/>
<path fill-rule="evenodd" clip-rule="evenodd" d="M86.0998 10.1H90.7998V24.7H86.1998V19H81.2998V14.6H86.0998V10.1Z" fill="white"/>
<path fill-rule="evenodd" clip-rule="evenodd" d="M93.1001 10.2H107.2V14.2H93.2001L93.1001 10.2Z" fill="white"/>
<path fill-rule="evenodd" clip-rule="evenodd" d="M109.3 10.2C109.3 10.2 117.5 10.2 122.7 10.2C124 10.2 125.7 12.4 125.4 14.3C121.6 14.3 114.1 14.3 114.1 14.3V24.8H109.3V10.2Z" fill="white"/>
<path fill-rule="evenodd" clip-rule="evenodd" d="M127.8 10.1H140.6V14.6H132.5V24.7H127.8V10.1Z" fill="white"/>
<path fill-rule="evenodd" clip-rule="evenodd" d="M158.3 13.2C158.3 12 157.1 10.2 155.6 10.2C152.6 10.2 147.7 10.2 144.6 10.2C143.6 10.3 142.1 12.1 142.1 13.4C142 16.6 142.1 19.9 142.1 22C142.2 23.3 143.5 24.8 144.7 24.8C148.4 24.8 154.3 24.8 156.1 24.8C156.6 24.8 158.3 23.3 158.3 22.2C158.4 19.2 158.3 14.8 158.3 13.2ZM153.6 20.8C151.4 20.8 149.2 20.8 147 20.8C147 18.6 147 16.5 147 14.3C149.2 14.3 151.4 14.3 153.6 14.3C153.6 16.5 153.6 18.6 153.6 20.8Z" fill="white"/>
<path fill-rule="evenodd" clip-rule="evenodd" d="M97.9001 19.4V20.7H107.3V24.7H93.2001L93.1001 15.3H103.7V19.4H97.9001Z" fill="white"/>
<path fill-rule="evenodd" clip-rule="evenodd" d="M115.2 19.6V15.4C115.2 15.4 122 15.4 125.4 15.4C125.4 15.5 125.4 15.8 125.4 15.9C125.5 17.9 123.8 19.5 122.7 19.6C120.7 19.6 115.2 19.6 115.2 19.6Z" fill="white"/>
<path fill-rule="evenodd" clip-rule="evenodd" d="M61.7999 15.5C65.5999 15.5 69.4999 15.5 73.2999 15.5C73.2999 17.8 73.2999 20 73.2999 22.3C72.9999 24.1 71.2999 24.7 70.3999 24.8C68.3999 24.8 63.5999 24.8 58.3999 24.8C58.3999 23.5 58.3999 22.1 58.3999 20.8C61.7999 20.8 65.1999 20.8 68.5999 20.8C68.5999 20.4 68.5999 19.9 68.5999 19.5C66.2999 19.5 64.0999 19.5 61.7999 19.5C61.7999 18.1 61.7999 16.8 61.7999 15.5Z" fill="white"/>
<path fill-rule="evenodd" clip-rule="evenodd" d="M31.4001 10L15.1001 18.2L23.6001 22.6L39.7001 14V37L23.6001 47.3V59.6L47.2001 43.5L47.1001 10.2L23.6001 0L0.100098 10.2L7.3001 14L23.6001 6.3L39.7001 14" fill="white"/>
<path d="M57 45.3V37.7C57 36.8 57.2 36 57.5 35.3C57.8 34.6 58.3 33.9 58.8 33.4C59.4 32.9 60 32.5 60.7 32.1C61.4 31.8 62.2 31.6 63 31.6H73V34.8H64.2C63.8 34.8 63.4 34.9 63 35C62.6 35.1 62.3 35.3 62 35.6C61.7 35.9 61.4 36.2 61.3 36.7C61.1 37.2 61 37.7 61 38.5V45.4H57V45.3Z" fill="#0099FF"/>
<path d="M93.0998 39.4C93.0998 40.2 92.9998 41 92.6998 41.7C92.3998 42.4 92.0998 43 91.4998 43.6C90.9998 44.1 90.3998 44.6 89.6998 44.9C88.9998 45.2 88.1998 45.4 87.2998 45.4H79.7998V51.8H75.7998V37.5C75.7998 36.6 75.8998 35.8 76.1998 35.1C76.4998 34.4 76.8998 33.8 77.3998 33.2C77.8998 32.7 78.4998 32.3 79.1998 32C79.8998 31.7 80.6998 31.6 81.4998 31.6H87.1998C87.9998 31.6 88.7998 31.7 89.4998 32C90.1998 32.3 90.7998 32.7 91.2998 33.2C91.7998 33.7 92.1998 34.3 92.4998 35.1C92.7998 35.8 92.8998 36.6 92.8998 37.5V39.4H93.0998ZM89.0998 38C89.0998 37.1 88.8998 36.3 88.3998 35.7C87.8998 35.1 87.1998 34.8 86.0998 34.8H82.6998C81.6998 34.8 80.8998 35.1 80.4998 35.7C79.9998 36.3 79.7998 37.1 79.7998 38V42.1H86.1998C86.7998 42.1 87.1998 42 87.5998 41.9C87.9998 41.7 88.2998 41.5 88.4998 41.2C88.6998 40.9 88.8998 40.6 88.9998 40.2C89.0998 39.8 89.0998 39.4 89.0998 39V38Z" fill="#0099FF"/>
<path d="M103.5 45.3C102.6 45.3 101.7 45.2 100.9 44.9C100.1 44.6 99.5002 44.2 98.9002 43.6C98.3002 43 97.9002 42.4 97.6002 41.6C97.3002 40.8 97.2002 40 97.2002 39V31.6H101.2V38.8C101.2 39.9 101.5 40.7 102.1 41.3C102.7 41.9 103.5 42.1 104.5 42.1H110.3V31.6H114.3V46.1C114.3 46.9 114.2 47.7 113.9 48.4C113.6 49.1 113.3 49.7 112.8 50.2C112.3 50.7 111.7 51.1 110.9 51.4C110.2 51.7 109.3 51.8 108.3 51.8H100.9V48.5H107.9C108.4 48.5 108.8 48.4 109.1 48.3C109.4 48.2 109.6 48 109.8 47.8C110 47.6 110.1 47.4 110.2 47.2C110.3 47 110.3 46.8 110.3 46.6V45.4H103.5V45.3Z" fill="#0099FF"/>
<path d="M118.7 45.3V31.6H136V45.3H132V34.8H122.6V45.3H118.7Z" fill="#0099FF"/>
<path d="M140.4 45.3V31.6H157.7V45.3H153.7V34.8H144.3V45.3H140.4Z" fill="#0099FF"/>
</g>
<defs>
<clipPath id="clip0_62_13">
<rect width="158.3" height="59.6" fill="white"/>
</clipPath>
</defs>
</svg>
