<svg width="24" height="24" viewBox="0 0 24 24" fill="none" xmlns="http://www.w3.org/2000/svg">
<g clip-path="url(#clip0_119_172)">
<path d="M11.9999 13.8332C10.9899 13.8332 10.026 13.632 9.14551 13.2683L11.1483 23.3015C11.2293 23.7077 11.5858 24 11.9999 24C12.414 24 12.7705 23.7076 12.8515 23.3016L14.8543 13.2683C13.9739 13.6319 13.0099 13.8332 11.9999 13.8332Z" fill="#0099FF"/>
<path d="M11.9999 12.6172C15.4773 12.6172 18.2963 9.79275 18.2963 6.30861C18.2963 2.82446 15.4773 0 11.9999 0C8.52257 0 5.70361 2.82446 5.70361 6.30861C5.70361 9.79275 8.52257 12.6172 11.9999 12.6172Z" fill="#0099FF"/>
</g>
<defs>
<clipPath id="clip0_119_172">
<rect width="24" height="24" fill="white"/>
</clipPath>
</defs>
</svg>
