<svg width="37" height="37" viewBox="0 0 37 37" fill="none" xmlns="http://www.w3.org/2000/svg">
<path d="M18.5 0C10.8471 0 4.625 6.22207 4.625 13.875C4.625 24.1078 17.4232 36.2773 17.9725 36.7904C18.1242 36.9277 18.3121 37 18.5 37C18.6879 37 18.883 36.9277 19.0275 36.7904C19.5768 36.2773 32.375 24.1078 32.375 13.875C32.375 6.22207 26.1529 0 18.5 0ZM18.5 21.5857C14.2508 21.5857 10.7893 18.1242 10.7893 13.875C10.7893 9.62578 14.2508 6.16426 18.5 6.16426C22.7492 6.16426 26.2107 9.62578 26.2107 13.875C26.2107 18.1242 22.7492 21.5857 18.5 21.5857Z" fill="#FA9241"/>
</svg>
