<svg width="14" height="13" viewBox="0 0 14 13" fill="none" xmlns="http://www.w3.org/2000/svg">
<g clip-path="url(#clip0_62_102)">
<path d="M12.9827 0.14478L0.548023 5.38672C0.548023 5.38672 -0.0418909 5.60139 0.004559 6.00077C0.0510089 6.40016 0.529443 6.58487 0.529443 6.58487L3.65552 7.71813L3.66017 7.72312V7.71813L11.1665 2.59102C11.1665 2.59102 11.5985 2.30645 11.5845 2.59102C11.5845 2.59102 11.6635 2.64094 11.4312 2.87558C11.199 3.11022 5.5321 8.5818 5.5321 8.5818L5.52281 8.68664L10.623 12.8902C11.473 13.2896 11.7843 12.4558 11.7843 12.4558L13.9999 0.459296C13.9999 -0.339475 12.978 0.14478 12.9827 0.14478Z" fill="white"/>
<path d="M7.4739 10.2942L5.45333 12.2761C5.45333 12.2761 5.2954 12.4059 5.12354 12.326L5.50907 8.6467" fill="white"/>
</g>
<defs>
<clipPath id="clip0_62_102">
<rect width="14" height="13" fill="white"/>
</clipPath>
</defs>
</svg>
