<svg width="14" height="14" viewBox="0 0 14 14" fill="none" xmlns="http://www.w3.org/2000/svg">
<g clip-path="url(#clip0_62_111)">
<path d="M11.956 2.03383C10.64 0.724378 8.89 0 7.028 0C3.192 0 0.056 3.10647 0.056 6.93731C0.056 8.16318 0.378 9.34726 0.98 10.406L0 14L3.696 13.0388C4.718 13.596 5.866 13.8886 7.028 13.8886C10.864 13.8886 14 10.7821 14 6.95124C14 5.08458 13.272 3.34328 11.956 2.03383ZM7.028 12.7045C5.992 12.7045 4.97 12.4259 4.074 11.8965L3.864 11.7711L1.68 12.3562L2.268 10.2249L2.128 10.002C1.554 9.08259 1.246 8.02388 1.246 6.93731C1.232 3.76119 3.836 1.17015 7.028 1.17015C8.582 1.17015 10.024 1.76915 11.13 2.85572C12.222 3.94229 12.824 5.39104 12.824 6.93731C12.824 10.1134 10.22 12.7045 7.028 12.7045ZM10.206 8.38607C10.038 8.30249 9.17 7.88458 9.016 7.82886C8.862 7.77313 8.736 7.74527 8.624 7.91244C8.512 8.0796 8.176 8.46965 8.078 8.59502C7.98 8.70647 7.868 8.7204 7.7 8.63682C7.532 8.55323 6.958 8.37214 6.3 7.77313C5.782 7.31343 5.432 6.74229 5.334 6.57512C5.236 6.40796 5.32 6.31045 5.404 6.22687C5.488 6.14328 5.572 6.01791 5.67 5.9204C5.754 5.82289 5.782 5.75323 5.838 5.62786C5.894 5.51642 5.866 5.40497 5.824 5.32139C5.782 5.23781 5.432 4.38806 5.292 4.0398C5.152 3.70547 5.012 3.74726 4.9 3.74726C4.802 3.74726 4.676 3.74726 4.564 3.74726C4.452 3.74726 4.256 3.78905 4.102 3.97015C3.948 4.13731 3.486 4.56915 3.486 5.41891C3.486 6.26866 4.116 7.09055 4.2 7.21592C4.284 7.32736 5.432 9.08259 7.182 9.83483C7.602 10.0159 7.924 10.1134 8.176 10.197C8.596 10.3224 8.974 10.3085 9.268 10.2667C9.604 10.2109 10.304 9.84876 10.444 9.44478C10.584 9.0408 10.584 8.69254 10.542 8.62289C10.5 8.51144 10.388 8.46965 10.206 8.38607Z" fill="white"/>
</g>
<defs>
<clipPath id="clip0_62_111">
<rect width="14" height="14" fill="white"/>
</clipPath>
</defs>
</svg>
